G75*
%MOIN*%
%OFA0B0*%
%FSLAX25Y25*%
%IPPOS*%
%LPD*%
%AMOC8*
5,1,8,0,0,1.08239X$1,22.5*
%
%ADD10R,0.07000X0.10000*%
%ADD11C,0.31496*%
%ADD12R,0.07400X0.07400*%
%ADD13C,0.07400*%
%ADD14OC8,0.06800*%
%ADD15R,0.03937X0.04528*%
%ADD16C,0.01181*%
%ADD17R,0.04331X0.03937*%
%ADD18C,0.01000*%
%ADD19C,0.04000*%
%ADD20C,0.01600*%
D10*
X0100026Y0166898D03*
X0100026Y0179102D03*
X0186640Y0179102D03*
X0186640Y0166898D03*
D11*
X0153175Y0173000D02*
X0133491Y0173000D01*
D12*
X0178833Y0125000D03*
X0188333Y0095000D03*
X0107833Y0095000D03*
X0098333Y0095000D03*
D13*
X0098333Y0105000D03*
X0108833Y0105000D03*
X0107833Y0115000D03*
X0098333Y0115000D03*
X0098333Y0125000D03*
X0108833Y0125000D03*
X0177833Y0115000D03*
X0188333Y0115000D03*
X0188333Y0105000D03*
X0178833Y0105000D03*
X0177833Y0095000D03*
X0188333Y0125000D03*
D14*
X0158333Y0125000D03*
X0158333Y0115000D03*
X0158333Y0105000D03*
X0158333Y0095000D03*
X0128333Y0095000D03*
X0128333Y0105000D03*
X0128333Y0115000D03*
X0128333Y0125000D03*
D15*
X0133491Y0081122D03*
X0143333Y0081122D03*
X0153176Y0081122D03*
X0153176Y0058878D03*
X0143333Y0058878D03*
X0133491Y0058878D03*
D16*
X0173003Y0083622D02*
X0173003Y0086378D01*
X0175759Y0086378D01*
X0175759Y0083622D01*
X0173003Y0083622D01*
X0173003Y0084802D02*
X0175759Y0084802D01*
X0175759Y0085982D02*
X0173003Y0085982D01*
X0179908Y0086378D02*
X0179908Y0083622D01*
X0179908Y0086378D02*
X0182664Y0086378D01*
X0182664Y0083622D01*
X0179908Y0083622D01*
X0179908Y0084802D02*
X0182664Y0084802D01*
X0182664Y0085982D02*
X0179908Y0085982D01*
D17*
X0181180Y0077500D03*
X0174487Y0077500D03*
D18*
X0095433Y0089800D02*
X0095433Y0057100D01*
X0098386Y0057100D01*
X0096864Y0059735D01*
X0096864Y0059735D01*
X0096288Y0063000D01*
X0096288Y0063000D01*
X0096864Y0066265D01*
X0096864Y0066265D01*
X0098521Y0069135D01*
X0098521Y0069135D01*
X0098521Y0069135D01*
X0101061Y0071266D01*
X0101061Y0071266D01*
X0104176Y0072400D01*
X0107491Y0072400D01*
X0110606Y0071266D01*
X0110606Y0071266D01*
X0113145Y0069135D01*
X0113145Y0069135D01*
X0114803Y0066265D01*
X0114803Y0066265D01*
X0115378Y0063000D01*
X0115378Y0063000D01*
X0114803Y0059735D01*
X0114803Y0059735D01*
X0113281Y0057100D01*
X0129822Y0057100D01*
X0129822Y0061846D01*
X0130818Y0062842D01*
X0130991Y0062842D01*
X0130991Y0077158D01*
X0130818Y0077158D01*
X0129822Y0078154D01*
X0129822Y0084090D01*
X0130818Y0085086D01*
X0136163Y0085086D01*
X0137159Y0084090D01*
X0137159Y0078154D01*
X0136163Y0077158D01*
X0135991Y0077158D01*
X0135991Y0073056D01*
X0136757Y0073373D01*
X0138099Y0073373D01*
X0139339Y0072860D01*
X0140287Y0071911D01*
X0140801Y0070671D01*
X0140801Y0069329D01*
X0140287Y0068089D01*
X0139339Y0067140D01*
X0138099Y0066627D01*
X0136757Y0066627D01*
X0135991Y0066944D01*
X0135991Y0062842D01*
X0136163Y0062842D01*
X0137159Y0061846D01*
X0137159Y0057100D01*
X0139665Y0057100D01*
X0139665Y0061846D01*
X0140661Y0062842D01*
X0140833Y0062842D01*
X0140833Y0077158D01*
X0140661Y0077158D01*
X0139665Y0078154D01*
X0139665Y0084090D01*
X0140661Y0085086D01*
X0140833Y0085086D01*
X0140833Y0120497D01*
X0141214Y0121416D01*
X0146214Y0126416D01*
X0146917Y0127119D01*
X0147836Y0127500D01*
X0153621Y0127500D01*
X0156221Y0130100D01*
X0160446Y0130100D01*
X0163046Y0127500D01*
X0173433Y0127500D01*
X0173433Y0129404D01*
X0174429Y0130400D01*
X0183237Y0130400D01*
X0184233Y0129404D01*
X0184233Y0128204D01*
X0184367Y0128388D01*
X0184946Y0128966D01*
X0185608Y0129447D01*
X0186337Y0129819D01*
X0187116Y0130072D01*
X0187833Y0130186D01*
X0187833Y0125500D01*
X0188833Y0125500D01*
X0188833Y0130186D01*
X0189551Y0130072D01*
X0190329Y0129819D01*
X0191059Y0129447D01*
X0191233Y0129321D01*
X0191233Y0160586D01*
X0190845Y0160198D01*
X0189140Y0160198D01*
X0189140Y0140310D01*
X0188760Y0139391D01*
X0184453Y0135084D01*
X0184453Y0135084D01*
X0183749Y0134381D01*
X0182831Y0134000D01*
X0171066Y0134000D01*
X0170429Y0133363D01*
X0169069Y0132800D01*
X0167597Y0132800D01*
X0166237Y0133363D01*
X0165197Y0134404D01*
X0164633Y0135764D01*
X0164633Y0137236D01*
X0165197Y0138596D01*
X0166237Y0139637D01*
X0167597Y0140200D01*
X0169069Y0140200D01*
X0170429Y0139637D01*
X0171066Y0139000D01*
X0181298Y0139000D01*
X0184140Y0141843D01*
X0184140Y0160198D01*
X0182436Y0160198D01*
X0181440Y0161193D01*
X0181440Y0172602D01*
X0181839Y0173000D01*
X0181440Y0173398D01*
X0181440Y0184807D01*
X0182436Y0185802D01*
X0190845Y0185802D01*
X0191233Y0185414D01*
X0191233Y0202900D01*
X0166529Y0202900D01*
X0164161Y0201139D01*
X0164161Y0201139D01*
X0157616Y0197922D01*
X0157616Y0197922D01*
X0150596Y0195948D01*
X0150596Y0195948D01*
X0143333Y0195283D01*
X0143333Y0195283D01*
X0136071Y0195948D01*
X0136071Y0195948D01*
X0129051Y0197922D01*
X0129051Y0197922D01*
X0122506Y0201139D01*
X0122506Y0201139D01*
X0120138Y0202900D01*
X0095433Y0202900D01*
X0095433Y0185414D01*
X0095822Y0185802D01*
X0104230Y0185802D01*
X0105226Y0184807D01*
X0105226Y0173398D01*
X0104828Y0173000D01*
X0105226Y0172602D01*
X0105226Y0161193D01*
X0104230Y0160198D01*
X0102833Y0160198D01*
X0102833Y0143036D01*
X0106869Y0139000D01*
X0115601Y0139000D01*
X0116237Y0139637D01*
X0117597Y0140200D01*
X0119069Y0140200D01*
X0120429Y0139637D01*
X0121470Y0138596D01*
X0122033Y0137236D01*
X0122033Y0135764D01*
X0121470Y0134404D01*
X0120429Y0133363D01*
X0119069Y0132800D01*
X0117597Y0132800D01*
X0116237Y0133363D01*
X0115601Y0134000D01*
X0105336Y0134000D01*
X0104417Y0134381D01*
X0103714Y0135084D01*
X0098214Y0140584D01*
X0097833Y0141503D01*
X0097833Y0160198D01*
X0095822Y0160198D01*
X0095433Y0160586D01*
X0095433Y0129321D01*
X0095608Y0129447D01*
X0096337Y0129819D01*
X0097116Y0130072D01*
X0097833Y0130186D01*
X0097833Y0125500D01*
X0098833Y0125500D01*
X0098833Y0130186D01*
X0099551Y0130072D01*
X0100329Y0129819D01*
X0101059Y0129447D01*
X0101721Y0128966D01*
X0102300Y0128388D01*
X0102781Y0127725D01*
X0103152Y0126996D01*
X0103405Y0126218D01*
X0103433Y0126041D01*
X0103433Y0126074D01*
X0104255Y0128059D01*
X0105774Y0129578D01*
X0107759Y0130400D01*
X0109907Y0130400D01*
X0111892Y0129578D01*
X0113411Y0128059D01*
X0113643Y0127500D01*
X0123621Y0127500D01*
X0126221Y0130100D01*
X0130446Y0130100D01*
X0133433Y0127112D01*
X0133433Y0122888D01*
X0130546Y0120000D01*
X0133433Y0117112D01*
X0133433Y0112888D01*
X0130546Y0110000D01*
X0133433Y0107112D01*
X0133433Y0102888D01*
X0130446Y0099900D01*
X0126221Y0099900D01*
X0123621Y0102500D01*
X0113643Y0102500D01*
X0113411Y0101941D01*
X0111892Y0100422D01*
X0111356Y0100200D01*
X0111731Y0100200D01*
X0112112Y0100098D01*
X0112454Y0099900D01*
X0112734Y0099621D01*
X0112931Y0099279D01*
X0113033Y0098897D01*
X0113033Y0095500D01*
X0108333Y0095500D01*
X0108333Y0094500D01*
X0108333Y0089800D01*
X0111731Y0089800D01*
X0112112Y0089902D01*
X0112454Y0090100D01*
X0112734Y0090379D01*
X0112931Y0090721D01*
X0113033Y0091103D01*
X0113033Y0094500D01*
X0108333Y0094500D01*
X0107333Y0094500D01*
X0098833Y0094500D01*
X0098833Y0089800D01*
X0102231Y0089800D01*
X0102612Y0089902D01*
X0102954Y0090100D01*
X0103083Y0090229D01*
X0103212Y0090100D01*
X0103554Y0089902D01*
X0103936Y0089800D01*
X0107333Y0089800D01*
X0107333Y0094500D01*
X0107333Y0095500D01*
X0102633Y0095500D01*
X0098833Y0095500D01*
X0097833Y0095500D01*
X0097833Y0104500D01*
X0098833Y0104500D01*
X0098833Y0099814D01*
X0098833Y0095500D01*
X0098833Y0094500D01*
X0097833Y0094500D01*
X0097833Y0089800D01*
X0095433Y0089800D01*
X0095433Y0088949D02*
X0140833Y0088949D01*
X0140833Y0087951D02*
X0095433Y0087951D01*
X0095433Y0086952D02*
X0140833Y0086952D01*
X0140833Y0085954D02*
X0095433Y0085954D01*
X0095433Y0084955D02*
X0130688Y0084955D01*
X0129822Y0083957D02*
X0095433Y0083957D01*
X0095433Y0082958D02*
X0129822Y0082958D01*
X0129822Y0081960D02*
X0095433Y0081960D01*
X0095433Y0080961D02*
X0129822Y0080961D01*
X0129822Y0079963D02*
X0095433Y0079963D01*
X0095433Y0078964D02*
X0129822Y0078964D01*
X0130011Y0077966D02*
X0095433Y0077966D01*
X0095433Y0076967D02*
X0130991Y0076967D01*
X0130991Y0075969D02*
X0095433Y0075969D01*
X0095433Y0074970D02*
X0130991Y0074970D01*
X0130991Y0073972D02*
X0095433Y0073972D01*
X0095433Y0072973D02*
X0130991Y0072973D01*
X0130991Y0071975D02*
X0108659Y0071975D01*
X0110951Y0070976D02*
X0130991Y0070976D01*
X0130991Y0069978D02*
X0112141Y0069978D01*
X0113235Y0068979D02*
X0130991Y0068979D01*
X0130991Y0067981D02*
X0113812Y0067981D01*
X0114388Y0066982D02*
X0130991Y0066982D01*
X0130991Y0065984D02*
X0114852Y0065984D01*
X0115028Y0064985D02*
X0130991Y0064985D01*
X0130991Y0063987D02*
X0115204Y0063987D01*
X0115376Y0062988D02*
X0130991Y0062988D01*
X0129966Y0061990D02*
X0115200Y0061990D01*
X0115024Y0060991D02*
X0129822Y0060991D01*
X0129822Y0059993D02*
X0114848Y0059993D01*
X0114375Y0058994D02*
X0129822Y0058994D01*
X0129822Y0057996D02*
X0113798Y0057996D01*
X0097868Y0057996D02*
X0095433Y0057996D01*
X0095433Y0058994D02*
X0097292Y0058994D01*
X0096819Y0059993D02*
X0095433Y0059993D01*
X0095433Y0060991D02*
X0096643Y0060991D01*
X0096466Y0061990D02*
X0095433Y0061990D01*
X0095433Y0062988D02*
X0096290Y0062988D01*
X0096462Y0063987D02*
X0095433Y0063987D01*
X0095433Y0064985D02*
X0096638Y0064985D01*
X0096814Y0065984D02*
X0095433Y0065984D01*
X0095433Y0066982D02*
X0097278Y0066982D01*
X0097855Y0067981D02*
X0095433Y0067981D01*
X0095433Y0068979D02*
X0098431Y0068979D01*
X0099525Y0069978D02*
X0095433Y0069978D01*
X0095433Y0070976D02*
X0100715Y0070976D01*
X0103007Y0071975D02*
X0095433Y0071975D01*
X0097833Y0089948D02*
X0098833Y0089948D01*
X0098833Y0090946D02*
X0097833Y0090946D01*
X0097833Y0091945D02*
X0098833Y0091945D01*
X0098833Y0092943D02*
X0097833Y0092943D01*
X0097833Y0093942D02*
X0098833Y0093942D01*
X0098833Y0094940D02*
X0107333Y0094940D01*
X0107333Y0093942D02*
X0108333Y0093942D01*
X0108333Y0094940D02*
X0128033Y0094940D01*
X0128033Y0094700D02*
X0123433Y0094700D01*
X0123433Y0092970D01*
X0126304Y0090100D01*
X0128033Y0090100D01*
X0128033Y0094700D01*
X0128033Y0095300D01*
X0123433Y0095300D01*
X0123433Y0097030D01*
X0126304Y0099900D01*
X0128033Y0099900D01*
X0128033Y0095300D01*
X0128633Y0095300D01*
X0128633Y0099900D01*
X0130363Y0099900D01*
X0133233Y0097030D01*
X0133233Y0095300D01*
X0128633Y0095300D01*
X0128633Y0094700D01*
X0128633Y0090100D01*
X0130363Y0090100D01*
X0133233Y0092970D01*
X0133233Y0094700D01*
X0128633Y0094700D01*
X0128033Y0094700D01*
X0128633Y0094940D02*
X0140833Y0094940D01*
X0140833Y0093942D02*
X0133233Y0093942D01*
X0133206Y0092943D02*
X0140833Y0092943D01*
X0140833Y0091945D02*
X0132208Y0091945D01*
X0131209Y0090946D02*
X0140833Y0090946D01*
X0140833Y0089948D02*
X0112191Y0089948D01*
X0112991Y0090946D02*
X0125457Y0090946D01*
X0124459Y0091945D02*
X0113033Y0091945D01*
X0113033Y0092943D02*
X0123460Y0092943D01*
X0123433Y0093942D02*
X0113033Y0093942D01*
X0113033Y0095939D02*
X0123433Y0095939D01*
X0123433Y0096937D02*
X0113033Y0096937D01*
X0113033Y0097936D02*
X0124340Y0097936D01*
X0125338Y0098934D02*
X0113023Y0098934D01*
X0112398Y0099933D02*
X0126188Y0099933D01*
X0125189Y0100932D02*
X0112402Y0100932D01*
X0113400Y0101930D02*
X0124191Y0101930D01*
X0128033Y0098934D02*
X0128633Y0098934D01*
X0128633Y0097936D02*
X0128033Y0097936D01*
X0128033Y0096937D02*
X0128633Y0096937D01*
X0128633Y0095939D02*
X0128033Y0095939D01*
X0128033Y0093942D02*
X0128633Y0093942D01*
X0128633Y0092943D02*
X0128033Y0092943D01*
X0128033Y0091945D02*
X0128633Y0091945D01*
X0128633Y0090946D02*
X0128033Y0090946D01*
X0133233Y0095939D02*
X0140833Y0095939D01*
X0140833Y0096937D02*
X0133233Y0096937D01*
X0132327Y0097936D02*
X0140833Y0097936D01*
X0140833Y0098934D02*
X0131328Y0098934D01*
X0130479Y0099933D02*
X0140833Y0099933D01*
X0140833Y0100932D02*
X0131477Y0100932D01*
X0132476Y0101930D02*
X0140833Y0101930D01*
X0140833Y0102929D02*
X0133433Y0102929D01*
X0133433Y0103927D02*
X0140833Y0103927D01*
X0140833Y0104926D02*
X0133433Y0104926D01*
X0133433Y0105924D02*
X0140833Y0105924D01*
X0140833Y0106923D02*
X0133433Y0106923D01*
X0132625Y0107921D02*
X0140833Y0107921D01*
X0140833Y0108920D02*
X0131626Y0108920D01*
X0130628Y0109918D02*
X0140833Y0109918D01*
X0140833Y0110917D02*
X0131462Y0110917D01*
X0132461Y0111915D02*
X0140833Y0111915D01*
X0140833Y0112914D02*
X0133433Y0112914D01*
X0133433Y0113912D02*
X0140833Y0113912D01*
X0140833Y0114911D02*
X0133433Y0114911D01*
X0133433Y0115909D02*
X0140833Y0115909D01*
X0140833Y0116908D02*
X0133433Y0116908D01*
X0132640Y0117906D02*
X0140833Y0117906D01*
X0140833Y0118905D02*
X0131641Y0118905D01*
X0130643Y0119903D02*
X0140833Y0119903D01*
X0141001Y0120902D02*
X0131448Y0120902D01*
X0132446Y0121900D02*
X0141698Y0121900D01*
X0142697Y0122899D02*
X0133433Y0122899D01*
X0133433Y0123897D02*
X0143695Y0123897D01*
X0144694Y0124896D02*
X0133433Y0124896D01*
X0133433Y0125894D02*
X0145692Y0125894D01*
X0146691Y0126893D02*
X0133433Y0126893D01*
X0132654Y0127891D02*
X0154012Y0127891D01*
X0155011Y0128890D02*
X0131656Y0128890D01*
X0130657Y0129888D02*
X0156009Y0129888D01*
X0160657Y0129888D02*
X0173918Y0129888D01*
X0173433Y0128890D02*
X0161656Y0128890D01*
X0162654Y0127891D02*
X0173433Y0127891D01*
X0170948Y0133882D02*
X0191233Y0133882D01*
X0191233Y0132884D02*
X0169272Y0132884D01*
X0167395Y0132884D02*
X0119272Y0132884D01*
X0117395Y0132884D02*
X0095433Y0132884D01*
X0095433Y0133882D02*
X0115718Y0133882D01*
X0120948Y0133882D02*
X0165718Y0133882D01*
X0164999Y0134881D02*
X0121668Y0134881D01*
X0122033Y0135879D02*
X0164633Y0135879D01*
X0164633Y0136878D02*
X0122033Y0136878D01*
X0121768Y0137876D02*
X0164899Y0137876D01*
X0165476Y0138875D02*
X0121191Y0138875D01*
X0119858Y0139873D02*
X0166809Y0139873D01*
X0169858Y0139873D02*
X0182171Y0139873D01*
X0183170Y0140872D02*
X0104997Y0140872D01*
X0105995Y0139873D02*
X0116809Y0139873D01*
X0103998Y0141870D02*
X0184140Y0141870D01*
X0184140Y0142869D02*
X0103000Y0142869D01*
X0102833Y0143868D02*
X0184140Y0143868D01*
X0184140Y0144866D02*
X0102833Y0144866D01*
X0102833Y0145865D02*
X0184140Y0145865D01*
X0184140Y0146863D02*
X0102833Y0146863D01*
X0102833Y0147862D02*
X0184140Y0147862D01*
X0184140Y0148860D02*
X0102833Y0148860D01*
X0102833Y0149859D02*
X0184140Y0149859D01*
X0184140Y0150857D02*
X0102833Y0150857D01*
X0102833Y0151856D02*
X0184140Y0151856D01*
X0184140Y0152854D02*
X0102833Y0152854D01*
X0102833Y0153853D02*
X0184140Y0153853D01*
X0184140Y0154851D02*
X0102833Y0154851D01*
X0102833Y0155850D02*
X0131621Y0155850D01*
X0131237Y0155883D02*
X0132738Y0155752D01*
X0142833Y0155752D01*
X0142833Y0172500D01*
X0116243Y0172500D01*
X0116243Y0172247D01*
X0116374Y0170747D01*
X0116636Y0169263D01*
X0117025Y0167808D01*
X0117541Y0166393D01*
X0118177Y0165028D01*
X0118930Y0163724D01*
X0119794Y0162490D01*
X0120762Y0161336D01*
X0121827Y0160271D01*
X0122981Y0159303D01*
X0124215Y0158439D01*
X0125519Y0157686D01*
X0126884Y0157050D01*
X0128299Y0156535D01*
X0129754Y0156145D01*
X0131237Y0155883D01*
X0127438Y0156848D02*
X0102833Y0156848D01*
X0102833Y0157847D02*
X0125241Y0157847D01*
X0123635Y0158845D02*
X0102833Y0158845D01*
X0102833Y0159844D02*
X0122337Y0159844D01*
X0121256Y0160842D02*
X0104875Y0160842D01*
X0105226Y0161841D02*
X0120339Y0161841D01*
X0119549Y0162839D02*
X0105226Y0162839D01*
X0105226Y0163838D02*
X0118864Y0163838D01*
X0118288Y0164836D02*
X0105226Y0164836D01*
X0105226Y0165835D02*
X0117801Y0165835D01*
X0117380Y0166833D02*
X0105226Y0166833D01*
X0105226Y0167832D02*
X0117019Y0167832D01*
X0116752Y0168830D02*
X0105226Y0168830D01*
X0105226Y0169829D02*
X0116536Y0169829D01*
X0116367Y0170827D02*
X0105226Y0170827D01*
X0105226Y0171826D02*
X0116280Y0171826D01*
X0116243Y0173500D02*
X0142833Y0173500D01*
X0142833Y0172500D01*
X0143833Y0172500D01*
X0143833Y0155752D01*
X0153929Y0155752D01*
X0155429Y0155883D01*
X0156913Y0156145D01*
X0158367Y0156535D01*
X0159783Y0157050D01*
X0161148Y0157686D01*
X0162452Y0158439D01*
X0163686Y0159303D01*
X0164840Y0160271D01*
X0165905Y0161336D01*
X0166873Y0162490D01*
X0167737Y0163724D01*
X0168490Y0165028D01*
X0169126Y0166393D01*
X0169641Y0167808D01*
X0170031Y0169263D01*
X0170293Y0170747D01*
X0170424Y0172247D01*
X0170424Y0172500D01*
X0143833Y0172500D01*
X0143833Y0173500D01*
X0142833Y0173500D01*
X0142833Y0190248D01*
X0132738Y0190248D01*
X0131237Y0190117D01*
X0129754Y0189855D01*
X0128299Y0189465D01*
X0126884Y0188950D01*
X0125519Y0188314D01*
X0124215Y0187561D01*
X0122981Y0186697D01*
X0121827Y0185729D01*
X0120762Y0184664D01*
X0119794Y0183510D01*
X0118930Y0182276D01*
X0118177Y0180972D01*
X0117541Y0179607D01*
X0117025Y0178192D01*
X0116636Y0176737D01*
X0116374Y0175253D01*
X0116243Y0173753D01*
X0116243Y0173500D01*
X0116249Y0173823D02*
X0105226Y0173823D01*
X0105226Y0174821D02*
X0116336Y0174821D01*
X0116474Y0175820D02*
X0105226Y0175820D01*
X0105226Y0176818D02*
X0116657Y0176818D01*
X0116925Y0177817D02*
X0105226Y0177817D01*
X0105226Y0178815D02*
X0117252Y0178815D01*
X0117637Y0179814D02*
X0105226Y0179814D01*
X0105226Y0180812D02*
X0118103Y0180812D01*
X0118662Y0181811D02*
X0105226Y0181811D01*
X0105226Y0182809D02*
X0119304Y0182809D01*
X0120044Y0183808D02*
X0105226Y0183808D01*
X0105226Y0184806D02*
X0120905Y0184806D01*
X0121918Y0185805D02*
X0095433Y0185805D01*
X0095433Y0186803D02*
X0123133Y0186803D01*
X0124633Y0187802D02*
X0095433Y0187802D01*
X0095433Y0188801D02*
X0126563Y0188801D01*
X0129544Y0189799D02*
X0095433Y0189799D01*
X0095433Y0190798D02*
X0191233Y0190798D01*
X0191233Y0191796D02*
X0095433Y0191796D01*
X0095433Y0192795D02*
X0191233Y0192795D01*
X0191233Y0193793D02*
X0095433Y0193793D01*
X0095433Y0194792D02*
X0191233Y0194792D01*
X0191233Y0195790D02*
X0148868Y0195790D01*
X0153584Y0196789D02*
X0191233Y0196789D01*
X0191233Y0197787D02*
X0157136Y0197787D01*
X0159373Y0198786D02*
X0191233Y0198786D01*
X0191233Y0199784D02*
X0161404Y0199784D01*
X0163436Y0200783D02*
X0191233Y0200783D01*
X0191233Y0201781D02*
X0165024Y0201781D01*
X0166367Y0202780D02*
X0191233Y0202780D01*
X0191233Y0189799D02*
X0157122Y0189799D01*
X0156913Y0189855D02*
X0158367Y0189465D01*
X0159783Y0188950D01*
X0161148Y0188314D01*
X0162452Y0187561D01*
X0163686Y0186697D01*
X0164840Y0185729D01*
X0165905Y0184664D01*
X0166873Y0183510D01*
X0167737Y0182276D01*
X0168490Y0180972D01*
X0169126Y0179607D01*
X0169641Y0178192D01*
X0170031Y0176737D01*
X0170293Y0175253D01*
X0170424Y0173753D01*
X0170424Y0173500D01*
X0143833Y0173500D01*
X0143833Y0190248D01*
X0153929Y0190248D01*
X0155429Y0190117D01*
X0156913Y0189855D01*
X0160104Y0188801D02*
X0191233Y0188801D01*
X0191233Y0187802D02*
X0162034Y0187802D01*
X0163533Y0186803D02*
X0191233Y0186803D01*
X0191233Y0185805D02*
X0164749Y0185805D01*
X0165762Y0184806D02*
X0181440Y0184806D01*
X0181440Y0183808D02*
X0166623Y0183808D01*
X0167363Y0182809D02*
X0181440Y0182809D01*
X0181440Y0181811D02*
X0168005Y0181811D01*
X0168564Y0180812D02*
X0181440Y0180812D01*
X0181440Y0179814D02*
X0169030Y0179814D01*
X0169414Y0178815D02*
X0181440Y0178815D01*
X0181440Y0177817D02*
X0169742Y0177817D01*
X0170009Y0176818D02*
X0181440Y0176818D01*
X0181440Y0175820D02*
X0170193Y0175820D01*
X0170330Y0174821D02*
X0181440Y0174821D01*
X0181440Y0173823D02*
X0170418Y0173823D01*
X0170387Y0171826D02*
X0181440Y0171826D01*
X0181440Y0170827D02*
X0170300Y0170827D01*
X0170131Y0169829D02*
X0181440Y0169829D01*
X0181440Y0168830D02*
X0169915Y0168830D01*
X0169647Y0167832D02*
X0181440Y0167832D01*
X0181440Y0166833D02*
X0169286Y0166833D01*
X0168866Y0165835D02*
X0181440Y0165835D01*
X0181440Y0164836D02*
X0168379Y0164836D01*
X0167802Y0163838D02*
X0181440Y0163838D01*
X0181440Y0162839D02*
X0167117Y0162839D01*
X0166328Y0161841D02*
X0181440Y0161841D01*
X0181792Y0160842D02*
X0165410Y0160842D01*
X0164330Y0159844D02*
X0184140Y0159844D01*
X0184140Y0158845D02*
X0163032Y0158845D01*
X0161426Y0157847D02*
X0184140Y0157847D01*
X0184140Y0156848D02*
X0159229Y0156848D01*
X0155045Y0155850D02*
X0184140Y0155850D01*
X0189140Y0155850D02*
X0191233Y0155850D01*
X0191233Y0156848D02*
X0189140Y0156848D01*
X0189140Y0157847D02*
X0191233Y0157847D01*
X0191233Y0158845D02*
X0189140Y0158845D01*
X0189140Y0159844D02*
X0191233Y0159844D01*
X0191233Y0154851D02*
X0189140Y0154851D01*
X0189140Y0153853D02*
X0191233Y0153853D01*
X0191233Y0152854D02*
X0189140Y0152854D01*
X0189140Y0151856D02*
X0191233Y0151856D01*
X0191233Y0150857D02*
X0189140Y0150857D01*
X0189140Y0149859D02*
X0191233Y0149859D01*
X0191233Y0148860D02*
X0189140Y0148860D01*
X0189140Y0147862D02*
X0191233Y0147862D01*
X0191233Y0146863D02*
X0189140Y0146863D01*
X0189140Y0145865D02*
X0191233Y0145865D01*
X0191233Y0144866D02*
X0189140Y0144866D01*
X0189140Y0143868D02*
X0191233Y0143868D01*
X0191233Y0142869D02*
X0189140Y0142869D01*
X0189140Y0141870D02*
X0191233Y0141870D01*
X0191233Y0140872D02*
X0189140Y0140872D01*
X0188960Y0139873D02*
X0191233Y0139873D01*
X0191233Y0138875D02*
X0188244Y0138875D01*
X0187245Y0137876D02*
X0191233Y0137876D01*
X0191233Y0136878D02*
X0186247Y0136878D01*
X0185248Y0135879D02*
X0191233Y0135879D01*
X0191233Y0134881D02*
X0184250Y0134881D01*
X0183749Y0129888D02*
X0186551Y0129888D01*
X0187833Y0129888D02*
X0188833Y0129888D01*
X0188833Y0128890D02*
X0187833Y0128890D01*
X0187833Y0127891D02*
X0188833Y0127891D01*
X0188833Y0126893D02*
X0187833Y0126893D01*
X0187833Y0125894D02*
X0188833Y0125894D01*
X0188833Y0124500D02*
X0188833Y0119814D01*
X0188833Y0115500D01*
X0187833Y0115500D01*
X0187833Y0124500D01*
X0188833Y0124500D01*
X0188833Y0123897D02*
X0187833Y0123897D01*
X0187833Y0122899D02*
X0188833Y0122899D01*
X0188833Y0121900D02*
X0187833Y0121900D01*
X0187833Y0120902D02*
X0188833Y0120902D01*
X0188833Y0119903D02*
X0187833Y0119903D01*
X0187833Y0118905D02*
X0188833Y0118905D01*
X0188833Y0117906D02*
X0187833Y0117906D01*
X0187833Y0116908D02*
X0188833Y0116908D01*
X0188833Y0115909D02*
X0187833Y0115909D01*
X0187833Y0114500D02*
X0188833Y0114500D01*
X0188833Y0110186D01*
X0188833Y0105500D01*
X0187833Y0105500D01*
X0187833Y0114500D01*
X0187833Y0113912D02*
X0188833Y0113912D01*
X0188833Y0112914D02*
X0187833Y0112914D01*
X0187833Y0111915D02*
X0188833Y0111915D01*
X0188833Y0110917D02*
X0187833Y0110917D01*
X0187833Y0109918D02*
X0188833Y0109918D01*
X0188833Y0108920D02*
X0187833Y0108920D01*
X0187833Y0107921D02*
X0188833Y0107921D01*
X0188833Y0106923D02*
X0187833Y0106923D01*
X0187833Y0105924D02*
X0188833Y0105924D01*
X0188833Y0104500D02*
X0188833Y0099814D01*
X0188833Y0095500D01*
X0187833Y0095500D01*
X0187833Y0104500D01*
X0188833Y0104500D01*
X0188833Y0103927D02*
X0187833Y0103927D01*
X0187833Y0102929D02*
X0188833Y0102929D01*
X0188833Y0101930D02*
X0187833Y0101930D01*
X0187833Y0100932D02*
X0188833Y0100932D01*
X0188833Y0099933D02*
X0187833Y0099933D01*
X0187833Y0098934D02*
X0188833Y0098934D01*
X0188833Y0097936D02*
X0187833Y0097936D01*
X0187833Y0096937D02*
X0188833Y0096937D01*
X0188833Y0095939D02*
X0187833Y0095939D01*
X0187833Y0094500D02*
X0188833Y0094500D01*
X0188833Y0089800D01*
X0191233Y0089800D01*
X0191233Y0057100D01*
X0188281Y0057100D01*
X0189803Y0059735D01*
X0189803Y0059735D01*
X0190378Y0063000D01*
X0189803Y0066265D01*
X0188145Y0069135D01*
X0188145Y0069135D01*
X0185606Y0071266D01*
X0185606Y0071266D01*
X0182491Y0072400D01*
X0179176Y0072400D01*
X0176061Y0071266D01*
X0176061Y0071266D01*
X0173521Y0069135D01*
X0171864Y0066265D01*
X0171864Y0066265D01*
X0171288Y0063000D01*
X0171864Y0059735D01*
X0173386Y0057100D01*
X0156844Y0057100D01*
X0156844Y0061846D01*
X0155849Y0062842D01*
X0155676Y0062842D01*
X0155676Y0077158D01*
X0155849Y0077158D01*
X0156844Y0078154D01*
X0156844Y0078622D01*
X0164979Y0078622D01*
X0165737Y0077863D01*
X0167097Y0077300D01*
X0168569Y0077300D01*
X0169929Y0077863D01*
X0170822Y0078756D01*
X0170822Y0077984D01*
X0174003Y0077984D01*
X0174003Y0080968D01*
X0172124Y0080968D01*
X0171743Y0080866D01*
X0171533Y0080745D01*
X0171533Y0081736D01*
X0171451Y0081934D01*
X0172054Y0081331D01*
X0176707Y0081331D01*
X0177833Y0082458D01*
X0178737Y0081554D01*
X0178732Y0081168D01*
X0178310Y0081168D01*
X0177692Y0080550D01*
X0177573Y0080669D01*
X0177231Y0080866D01*
X0176850Y0080968D01*
X0174971Y0080968D01*
X0174971Y0077984D01*
X0174003Y0077984D01*
X0174003Y0077016D01*
X0174971Y0077016D01*
X0174971Y0074031D01*
X0176850Y0074031D01*
X0177231Y0074134D01*
X0177573Y0074331D01*
X0177692Y0074450D01*
X0178310Y0073831D01*
X0184049Y0073831D01*
X0185045Y0074827D01*
X0185045Y0080173D01*
X0184049Y0081168D01*
X0183732Y0081168D01*
X0183736Y0081455D01*
X0184955Y0082673D01*
X0184955Y0087327D01*
X0183613Y0088668D01*
X0178959Y0088668D01*
X0177833Y0087542D01*
X0177372Y0088003D01*
X0179012Y0089643D01*
X0180892Y0090422D01*
X0182411Y0091941D01*
X0183133Y0093684D01*
X0183133Y0091103D01*
X0183236Y0090721D01*
X0183433Y0090379D01*
X0183712Y0090100D01*
X0184054Y0089902D01*
X0184436Y0089800D01*
X0187833Y0089800D01*
X0187833Y0094500D01*
X0187833Y0093942D02*
X0188833Y0093942D01*
X0188833Y0092943D02*
X0187833Y0092943D01*
X0187833Y0091945D02*
X0188833Y0091945D01*
X0188833Y0090946D02*
X0187833Y0090946D01*
X0187833Y0089948D02*
X0188833Y0089948D01*
X0191233Y0088949D02*
X0178318Y0088949D01*
X0178242Y0087951D02*
X0177425Y0087951D01*
X0179747Y0089948D02*
X0183975Y0089948D01*
X0183175Y0090946D02*
X0181416Y0090946D01*
X0182413Y0091945D02*
X0183133Y0091945D01*
X0183133Y0092943D02*
X0182826Y0092943D01*
X0184330Y0087951D02*
X0191233Y0087951D01*
X0191233Y0086952D02*
X0184955Y0086952D01*
X0184955Y0085954D02*
X0191233Y0085954D01*
X0191233Y0084955D02*
X0184955Y0084955D01*
X0184955Y0083957D02*
X0191233Y0083957D01*
X0191233Y0082958D02*
X0184955Y0082958D01*
X0184241Y0081960D02*
X0191233Y0081960D01*
X0191233Y0080961D02*
X0184256Y0080961D01*
X0185045Y0079963D02*
X0191233Y0079963D01*
X0191233Y0078964D02*
X0185045Y0078964D01*
X0185045Y0077966D02*
X0191233Y0077966D01*
X0191233Y0076967D02*
X0185045Y0076967D01*
X0185045Y0075969D02*
X0191233Y0075969D01*
X0191233Y0074970D02*
X0185045Y0074970D01*
X0184190Y0073972D02*
X0191233Y0073972D01*
X0191233Y0072973D02*
X0155676Y0072973D01*
X0155676Y0071975D02*
X0178007Y0071975D01*
X0178170Y0073972D02*
X0155676Y0073972D01*
X0155676Y0074970D02*
X0170919Y0074970D01*
X0170924Y0074953D02*
X0171121Y0074610D01*
X0171400Y0074331D01*
X0171743Y0074134D01*
X0172124Y0074031D01*
X0174003Y0074031D01*
X0174003Y0077016D01*
X0170822Y0077016D01*
X0170822Y0075334D01*
X0170924Y0074953D01*
X0170822Y0075969D02*
X0155676Y0075969D01*
X0155676Y0076967D02*
X0170822Y0076967D01*
X0170032Y0077966D02*
X0174003Y0077966D01*
X0174003Y0078964D02*
X0174971Y0078964D01*
X0174971Y0079963D02*
X0174003Y0079963D01*
X0174003Y0080961D02*
X0174971Y0080961D01*
X0176877Y0080961D02*
X0178103Y0080961D01*
X0178331Y0081960D02*
X0177336Y0081960D01*
X0172097Y0080961D02*
X0171533Y0080961D01*
X0170712Y0083354D02*
X0169929Y0084137D01*
X0168569Y0084700D01*
X0167097Y0084700D01*
X0165737Y0084137D01*
X0165223Y0083622D01*
X0156844Y0083622D01*
X0156844Y0084090D01*
X0155849Y0085086D01*
X0150503Y0085086D01*
X0149507Y0084090D01*
X0149507Y0078154D01*
X0150503Y0077158D01*
X0150676Y0077158D01*
X0150676Y0073056D01*
X0149910Y0073373D01*
X0148568Y0073373D01*
X0147328Y0072860D01*
X0146379Y0071911D01*
X0145866Y0070671D01*
X0145866Y0069329D01*
X0146379Y0068089D01*
X0147328Y0067140D01*
X0148568Y0066627D01*
X0149910Y0066627D01*
X0150676Y0066944D01*
X0150676Y0062842D01*
X0150503Y0062842D01*
X0149507Y0061846D01*
X0149507Y0057100D01*
X0147002Y0057100D01*
X0147002Y0061846D01*
X0146006Y0062842D01*
X0145833Y0062842D01*
X0145833Y0077158D01*
X0146006Y0077158D01*
X0147002Y0078154D01*
X0147002Y0084090D01*
X0146006Y0085086D01*
X0145833Y0085086D01*
X0145833Y0118964D01*
X0149369Y0122500D01*
X0153621Y0122500D01*
X0156121Y0120000D01*
X0153233Y0117112D01*
X0153233Y0112888D01*
X0156121Y0110000D01*
X0153233Y0107112D01*
X0153233Y0102888D01*
X0156121Y0100000D01*
X0153233Y0097112D01*
X0153233Y0092888D01*
X0156221Y0089900D01*
X0160446Y0089900D01*
X0163046Y0092500D01*
X0173024Y0092500D01*
X0173255Y0091941D01*
X0173747Y0091449D01*
X0172261Y0089963D01*
X0171881Y0089045D01*
X0171881Y0088495D01*
X0170712Y0087327D01*
X0170712Y0083354D01*
X0170712Y0083957D02*
X0170109Y0083957D01*
X0170712Y0084955D02*
X0155979Y0084955D01*
X0156844Y0083957D02*
X0165558Y0083957D01*
X0170712Y0085954D02*
X0145833Y0085954D01*
X0145833Y0086952D02*
X0170712Y0086952D01*
X0171336Y0087951D02*
X0145833Y0087951D01*
X0145833Y0088949D02*
X0171881Y0088949D01*
X0172255Y0089948D02*
X0160494Y0089948D01*
X0161492Y0090946D02*
X0173244Y0090946D01*
X0173254Y0091945D02*
X0162491Y0091945D01*
X0156173Y0089948D02*
X0145833Y0089948D01*
X0145833Y0090946D02*
X0155174Y0090946D01*
X0154176Y0091945D02*
X0145833Y0091945D01*
X0145833Y0092943D02*
X0153233Y0092943D01*
X0153233Y0093942D02*
X0145833Y0093942D01*
X0145833Y0094940D02*
X0153233Y0094940D01*
X0153233Y0095939D02*
X0145833Y0095939D01*
X0145833Y0096937D02*
X0153233Y0096937D01*
X0154057Y0097936D02*
X0145833Y0097936D01*
X0145833Y0098934D02*
X0155055Y0098934D01*
X0156054Y0099933D02*
X0145833Y0099933D01*
X0145833Y0100932D02*
X0155189Y0100932D01*
X0154191Y0101930D02*
X0145833Y0101930D01*
X0145833Y0102929D02*
X0153233Y0102929D01*
X0153233Y0103927D02*
X0145833Y0103927D01*
X0145833Y0104926D02*
X0153233Y0104926D01*
X0153233Y0105924D02*
X0145833Y0105924D01*
X0145833Y0106923D02*
X0153233Y0106923D01*
X0154042Y0107921D02*
X0145833Y0107921D01*
X0145833Y0108920D02*
X0155040Y0108920D01*
X0156039Y0109918D02*
X0145833Y0109918D01*
X0145833Y0110917D02*
X0155204Y0110917D01*
X0154206Y0111915D02*
X0145833Y0111915D01*
X0145833Y0112914D02*
X0153233Y0112914D01*
X0153233Y0113912D02*
X0145833Y0113912D01*
X0145833Y0114911D02*
X0153233Y0114911D01*
X0153233Y0115909D02*
X0145833Y0115909D01*
X0145833Y0116908D02*
X0153233Y0116908D01*
X0154027Y0117906D02*
X0145833Y0117906D01*
X0145833Y0118905D02*
X0155026Y0118905D01*
X0156024Y0119903D02*
X0146772Y0119903D01*
X0147771Y0120902D02*
X0155219Y0120902D01*
X0154221Y0121900D02*
X0148769Y0121900D01*
X0126009Y0129888D02*
X0111143Y0129888D01*
X0112580Y0128890D02*
X0125011Y0128890D01*
X0124012Y0127891D02*
X0113481Y0127891D01*
X0106524Y0129888D02*
X0100116Y0129888D01*
X0098833Y0129888D02*
X0097833Y0129888D01*
X0097833Y0128890D02*
X0098833Y0128890D01*
X0098833Y0127891D02*
X0097833Y0127891D01*
X0097833Y0126893D02*
X0098833Y0126893D01*
X0098833Y0125894D02*
X0097833Y0125894D01*
X0097833Y0124500D02*
X0098833Y0124500D01*
X0098833Y0119814D01*
X0098833Y0115500D01*
X0097833Y0115500D01*
X0097833Y0124500D01*
X0097833Y0123897D02*
X0098833Y0123897D01*
X0098833Y0122899D02*
X0097833Y0122899D01*
X0097833Y0121900D02*
X0098833Y0121900D01*
X0098833Y0120902D02*
X0097833Y0120902D01*
X0097833Y0119903D02*
X0098833Y0119903D01*
X0098833Y0118905D02*
X0097833Y0118905D01*
X0097833Y0117906D02*
X0098833Y0117906D01*
X0098833Y0116908D02*
X0097833Y0116908D01*
X0097833Y0115909D02*
X0098833Y0115909D01*
X0098833Y0114500D02*
X0098833Y0109814D01*
X0098833Y0105500D01*
X0097833Y0105500D01*
X0097833Y0114500D01*
X0098833Y0114500D01*
X0098833Y0113912D02*
X0097833Y0113912D01*
X0097833Y0112914D02*
X0098833Y0112914D01*
X0098833Y0111915D02*
X0097833Y0111915D01*
X0097833Y0110917D02*
X0098833Y0110917D01*
X0098833Y0109918D02*
X0097833Y0109918D01*
X0097833Y0108920D02*
X0098833Y0108920D01*
X0098833Y0107921D02*
X0097833Y0107921D01*
X0097833Y0106923D02*
X0098833Y0106923D01*
X0098833Y0105924D02*
X0097833Y0105924D01*
X0097833Y0103927D02*
X0098833Y0103927D01*
X0098833Y0102929D02*
X0097833Y0102929D01*
X0097833Y0101930D02*
X0098833Y0101930D01*
X0098833Y0100932D02*
X0097833Y0100932D01*
X0097833Y0099933D02*
X0098833Y0099933D01*
X0098833Y0098934D02*
X0097833Y0098934D01*
X0097833Y0097936D02*
X0098833Y0097936D01*
X0098833Y0096937D02*
X0097833Y0096937D01*
X0097833Y0095939D02*
X0098833Y0095939D01*
X0102691Y0089948D02*
X0103475Y0089948D01*
X0107333Y0089948D02*
X0108333Y0089948D01*
X0108333Y0090946D02*
X0107333Y0090946D01*
X0107333Y0091945D02*
X0108333Y0091945D01*
X0108333Y0092943D02*
X0107333Y0092943D01*
X0136294Y0084955D02*
X0140530Y0084955D01*
X0139665Y0083957D02*
X0137159Y0083957D01*
X0137159Y0082958D02*
X0139665Y0082958D01*
X0139665Y0081960D02*
X0137159Y0081960D01*
X0137159Y0080961D02*
X0139665Y0080961D01*
X0139665Y0079963D02*
X0137159Y0079963D01*
X0137159Y0078964D02*
X0139665Y0078964D01*
X0139853Y0077966D02*
X0136971Y0077966D01*
X0135991Y0076967D02*
X0140833Y0076967D01*
X0140833Y0075969D02*
X0135991Y0075969D01*
X0135991Y0074970D02*
X0140833Y0074970D01*
X0140833Y0073972D02*
X0135991Y0073972D01*
X0139065Y0072973D02*
X0140833Y0072973D01*
X0140833Y0071975D02*
X0140224Y0071975D01*
X0140675Y0070976D02*
X0140833Y0070976D01*
X0140801Y0069978D02*
X0140833Y0069978D01*
X0140833Y0068979D02*
X0140656Y0068979D01*
X0140833Y0067981D02*
X0140179Y0067981D01*
X0140833Y0066982D02*
X0138957Y0066982D01*
X0140833Y0065984D02*
X0135991Y0065984D01*
X0135991Y0064985D02*
X0140833Y0064985D01*
X0140833Y0063987D02*
X0135991Y0063987D01*
X0135991Y0062988D02*
X0140833Y0062988D01*
X0139809Y0061990D02*
X0137016Y0061990D01*
X0137159Y0060991D02*
X0139665Y0060991D01*
X0139665Y0059993D02*
X0137159Y0059993D01*
X0137159Y0058994D02*
X0139665Y0058994D01*
X0139665Y0057996D02*
X0137159Y0057996D01*
X0145833Y0062988D02*
X0150676Y0062988D01*
X0150676Y0063987D02*
X0145833Y0063987D01*
X0145833Y0064985D02*
X0150676Y0064985D01*
X0150676Y0065984D02*
X0145833Y0065984D01*
X0145833Y0066982D02*
X0147710Y0066982D01*
X0146488Y0067981D02*
X0145833Y0067981D01*
X0145833Y0068979D02*
X0146011Y0068979D01*
X0145866Y0069978D02*
X0145833Y0069978D01*
X0145833Y0070976D02*
X0145992Y0070976D01*
X0145833Y0071975D02*
X0146443Y0071975D01*
X0145833Y0072973D02*
X0147602Y0072973D01*
X0145833Y0073972D02*
X0150676Y0073972D01*
X0150676Y0074970D02*
X0145833Y0074970D01*
X0145833Y0075969D02*
X0150676Y0075969D01*
X0150676Y0076967D02*
X0145833Y0076967D01*
X0146813Y0077966D02*
X0149696Y0077966D01*
X0149507Y0078964D02*
X0147002Y0078964D01*
X0147002Y0079963D02*
X0149507Y0079963D01*
X0149507Y0080961D02*
X0147002Y0080961D01*
X0147002Y0081960D02*
X0149507Y0081960D01*
X0149507Y0082958D02*
X0147002Y0082958D01*
X0147002Y0083957D02*
X0149507Y0083957D01*
X0150373Y0084955D02*
X0146136Y0084955D01*
X0156656Y0077966D02*
X0165635Y0077966D01*
X0174003Y0076967D02*
X0174971Y0076967D01*
X0174971Y0075969D02*
X0174003Y0075969D01*
X0174003Y0074970D02*
X0174971Y0074970D01*
X0175715Y0070976D02*
X0155676Y0070976D01*
X0155676Y0069978D02*
X0174525Y0069978D01*
X0173521Y0069135D02*
X0173521Y0069135D01*
X0173521Y0069135D01*
X0173431Y0068979D02*
X0155676Y0068979D01*
X0155676Y0067981D02*
X0172855Y0067981D01*
X0172278Y0066982D02*
X0155676Y0066982D01*
X0155676Y0065984D02*
X0171814Y0065984D01*
X0171638Y0064985D02*
X0155676Y0064985D01*
X0155676Y0063987D02*
X0171462Y0063987D01*
X0171288Y0063000D02*
X0171288Y0063000D01*
X0171290Y0062988D02*
X0155676Y0062988D01*
X0156701Y0061990D02*
X0171466Y0061990D01*
X0171643Y0060991D02*
X0156844Y0060991D01*
X0156844Y0059993D02*
X0171819Y0059993D01*
X0171864Y0059735D02*
X0171864Y0059735D01*
X0172292Y0058994D02*
X0156844Y0058994D01*
X0156844Y0057996D02*
X0172868Y0057996D01*
X0188798Y0057996D02*
X0191233Y0057996D01*
X0191233Y0058994D02*
X0189375Y0058994D01*
X0189848Y0059993D02*
X0191233Y0059993D01*
X0191233Y0060991D02*
X0190024Y0060991D01*
X0190200Y0061990D02*
X0191233Y0061990D01*
X0191233Y0062988D02*
X0190376Y0062988D01*
X0190378Y0063000D02*
X0190378Y0063000D01*
X0190204Y0063987D02*
X0191233Y0063987D01*
X0191233Y0064985D02*
X0190028Y0064985D01*
X0189852Y0065984D02*
X0191233Y0065984D01*
X0191233Y0066982D02*
X0189388Y0066982D01*
X0189803Y0066265D02*
X0189803Y0066265D01*
X0188812Y0067981D02*
X0191233Y0067981D01*
X0191233Y0068979D02*
X0188235Y0068979D01*
X0187141Y0069978D02*
X0191233Y0069978D01*
X0191233Y0070976D02*
X0185951Y0070976D01*
X0183659Y0071975D02*
X0191233Y0071975D01*
X0149651Y0061990D02*
X0146858Y0061990D01*
X0147002Y0060991D02*
X0149507Y0060991D01*
X0149507Y0059993D02*
X0147002Y0059993D01*
X0147002Y0058994D02*
X0149507Y0058994D01*
X0149507Y0057996D02*
X0147002Y0057996D01*
X0103772Y0126893D02*
X0103186Y0126893D01*
X0102660Y0127891D02*
X0104186Y0127891D01*
X0105086Y0128890D02*
X0101797Y0128890D01*
X0096551Y0129888D02*
X0095433Y0129888D01*
X0095433Y0130887D02*
X0191233Y0130887D01*
X0191233Y0131885D02*
X0095433Y0131885D01*
X0095433Y0134881D02*
X0103917Y0134881D01*
X0102918Y0135879D02*
X0095433Y0135879D01*
X0095433Y0136878D02*
X0101920Y0136878D01*
X0100921Y0137876D02*
X0095433Y0137876D01*
X0095433Y0138875D02*
X0099923Y0138875D01*
X0098924Y0139873D02*
X0095433Y0139873D01*
X0095433Y0140872D02*
X0098095Y0140872D01*
X0097833Y0141870D02*
X0095433Y0141870D01*
X0095433Y0142869D02*
X0097833Y0142869D01*
X0097833Y0143868D02*
X0095433Y0143868D01*
X0095433Y0144866D02*
X0097833Y0144866D01*
X0097833Y0145865D02*
X0095433Y0145865D01*
X0095433Y0146863D02*
X0097833Y0146863D01*
X0097833Y0147862D02*
X0095433Y0147862D01*
X0095433Y0148860D02*
X0097833Y0148860D01*
X0097833Y0149859D02*
X0095433Y0149859D01*
X0095433Y0150857D02*
X0097833Y0150857D01*
X0097833Y0151856D02*
X0095433Y0151856D01*
X0095433Y0152854D02*
X0097833Y0152854D01*
X0097833Y0153853D02*
X0095433Y0153853D01*
X0095433Y0154851D02*
X0097833Y0154851D01*
X0097833Y0155850D02*
X0095433Y0155850D01*
X0095433Y0156848D02*
X0097833Y0156848D01*
X0097833Y0157847D02*
X0095433Y0157847D01*
X0095433Y0158845D02*
X0097833Y0158845D01*
X0097833Y0159844D02*
X0095433Y0159844D01*
X0105004Y0172824D02*
X0142833Y0172824D01*
X0142833Y0171826D02*
X0143833Y0171826D01*
X0143833Y0172824D02*
X0181663Y0172824D01*
X0143833Y0173823D02*
X0142833Y0173823D01*
X0142833Y0174821D02*
X0143833Y0174821D01*
X0143833Y0175820D02*
X0142833Y0175820D01*
X0142833Y0176818D02*
X0143833Y0176818D01*
X0143833Y0177817D02*
X0142833Y0177817D01*
X0142833Y0178815D02*
X0143833Y0178815D01*
X0143833Y0179814D02*
X0142833Y0179814D01*
X0142833Y0180812D02*
X0143833Y0180812D01*
X0143833Y0181811D02*
X0142833Y0181811D01*
X0142833Y0182809D02*
X0143833Y0182809D01*
X0143833Y0183808D02*
X0142833Y0183808D01*
X0142833Y0184806D02*
X0143833Y0184806D01*
X0143833Y0185805D02*
X0142833Y0185805D01*
X0142833Y0186803D02*
X0143833Y0186803D01*
X0143833Y0187802D02*
X0142833Y0187802D01*
X0142833Y0188801D02*
X0143833Y0188801D01*
X0143833Y0189799D02*
X0142833Y0189799D01*
X0137798Y0195790D02*
X0095433Y0195790D01*
X0095433Y0196789D02*
X0133083Y0196789D01*
X0129531Y0197787D02*
X0095433Y0197787D01*
X0095433Y0198786D02*
X0127294Y0198786D01*
X0125262Y0199784D02*
X0095433Y0199784D01*
X0095433Y0200783D02*
X0123230Y0200783D01*
X0121642Y0201781D02*
X0095433Y0201781D01*
X0095433Y0202780D02*
X0120300Y0202780D01*
X0142833Y0170827D02*
X0143833Y0170827D01*
X0143833Y0169829D02*
X0142833Y0169829D01*
X0142833Y0168830D02*
X0143833Y0168830D01*
X0143833Y0167832D02*
X0142833Y0167832D01*
X0142833Y0166833D02*
X0143833Y0166833D01*
X0143833Y0165835D02*
X0142833Y0165835D01*
X0142833Y0164836D02*
X0143833Y0164836D01*
X0143833Y0163838D02*
X0142833Y0163838D01*
X0142833Y0162839D02*
X0143833Y0162839D01*
X0143833Y0161841D02*
X0142833Y0161841D01*
X0142833Y0160842D02*
X0143833Y0160842D01*
X0143833Y0159844D02*
X0142833Y0159844D01*
X0142833Y0158845D02*
X0143833Y0158845D01*
X0143833Y0157847D02*
X0142833Y0157847D01*
X0142833Y0156848D02*
X0143833Y0156848D01*
X0143833Y0155850D02*
X0142833Y0155850D01*
X0184233Y0128890D02*
X0184869Y0128890D01*
X0190116Y0129888D02*
X0191233Y0129888D01*
D19*
X0168333Y0136500D03*
X0150333Y0110500D03*
X0150333Y0095500D03*
X0167833Y0081000D03*
X0170333Y0070500D03*
X0118333Y0136500D03*
D20*
X0105833Y0136500D01*
X0100333Y0142000D01*
X0100333Y0178000D01*
X0099833Y0178500D01*
X0168333Y0136500D02*
X0182333Y0136500D01*
X0186640Y0140807D01*
X0186640Y0166898D01*
X0186640Y0180693D01*
X0186333Y0181000D01*
X0178833Y0125000D02*
X0158333Y0125000D01*
X0148333Y0125000D01*
X0143333Y0120000D01*
X0143333Y0081122D01*
X0143333Y0058878D01*
X0133491Y0058878D02*
X0133491Y0081122D01*
X0153176Y0081122D02*
X0167711Y0081122D01*
X0167833Y0081000D01*
X0174381Y0085000D02*
X0174381Y0088547D01*
X0177833Y0092000D01*
X0177833Y0095000D01*
X0158333Y0095000D01*
X0158333Y0105000D02*
X0178833Y0105000D01*
X0177833Y0115000D02*
X0158333Y0115000D01*
X0177833Y0115000D01*
X0181286Y0085000D02*
X0181180Y0077500D01*
X0153176Y0081122D02*
X0153176Y0058878D01*
X0128333Y0105000D02*
X0108833Y0105000D01*
X0107833Y0115000D02*
X0128333Y0115000D01*
X0128333Y0125000D02*
X0108833Y0125000D01*
M02*
