G75*
%MOIN*%
%OFA0B0*%
%FSLAX25Y25*%
%IPPOS*%
%LPD*%
%AMOC8*
5,1,8,0,0,1.08239X$1,22.5*
%
%ADD10R,0.07800X0.10800*%
%ADD11C,0.32296*%
%ADD12R,0.08200X0.08200*%
%ADD13C,0.08200*%
%ADD14OC8,0.07600*%
%ADD15C,0.13800*%
%ADD16R,0.04737X0.05328*%
%ADD17C,0.04146*%
%ADD18C,0.01421*%
%ADD19R,0.05131X0.04737*%
D10*
X0100026Y0166898D03*
X0100026Y0179102D03*
X0186640Y0179102D03*
X0186640Y0166898D03*
D11*
X0153175Y0173000D02*
X0133491Y0173000D01*
D12*
X0178833Y0125000D03*
X0188333Y0095000D03*
X0107833Y0095000D03*
X0098333Y0095000D03*
D13*
X0098333Y0105000D03*
X0108833Y0105000D03*
X0107833Y0115000D03*
X0098333Y0115000D03*
X0098333Y0125000D03*
X0108833Y0125000D03*
X0177833Y0115000D03*
X0188333Y0115000D03*
X0188333Y0105000D03*
X0178833Y0105000D03*
X0177833Y0095000D03*
X0188333Y0125000D03*
D14*
X0158333Y0125000D03*
X0158333Y0115000D03*
X0158333Y0105000D03*
X0158333Y0095000D03*
X0128333Y0095000D03*
X0128333Y0105000D03*
X0128333Y0115000D03*
X0128333Y0125000D03*
D15*
X0105833Y0063000D03*
X0180833Y0063000D03*
D16*
X0153176Y0058878D03*
X0143333Y0058878D03*
X0133491Y0058878D03*
X0133491Y0081122D03*
X0143333Y0081122D03*
X0153176Y0081122D03*
D17*
X0149239Y0070000D03*
X0137428Y0070000D03*
D18*
X0172723Y0083342D02*
X0172723Y0086658D01*
X0176039Y0086658D01*
X0176039Y0083342D01*
X0172723Y0083342D01*
X0172723Y0084762D02*
X0176039Y0084762D01*
X0176039Y0086182D02*
X0172723Y0086182D01*
X0179628Y0086658D02*
X0179628Y0083342D01*
X0179628Y0086658D02*
X0182944Y0086658D01*
X0182944Y0083342D01*
X0179628Y0083342D01*
X0179628Y0084762D02*
X0182944Y0084762D01*
X0182944Y0086182D02*
X0179628Y0086182D01*
D19*
X0181180Y0077500D03*
X0174487Y0077500D03*
M02*
