%
M48
M72
T01C0.02000
T02C0.03200
T03C0.03346
T04C0.04000
T05C0.13000
%
T01
X150333Y95500
X150333Y110500
X168333Y136500
X118333Y136500
X167833Y81000
X170333Y70500
T02
X158333Y95000
X158333Y105000
X158333Y115000
X158333Y125000
X128333Y125000
X128333Y115000
X128333Y105000
X128333Y95000
T03
X137428Y70000
X149239Y70000
T04
X177833Y95000
X188333Y95000
X188333Y105000
X178833Y105000
X177833Y115000
X188333Y115000
X188333Y125000
X178833Y125000
X108833Y125000
X98333Y125000
X98333Y115000
X107833Y115000
X108833Y105000
X98333Y105000
X98333Y95000
X107833Y95000
T05
X105833Y63000
X180833Y63000
M30
